<svg width="120" height="122" viewBox="0 0 120 122" fill="none" xmlns="http://www.w3.org/2000/svg">
<path d="M71.3531 26.5684C66.9638 26.5684 62.673 27.8756 59.0234 30.3247C55.3738 32.7738 52.5292 36.2549 50.8495 40.3276C49.1698 44.4004 48.7303 48.8819 49.5866 53.2055C50.4429 57.5291 52.5566 61.5006 55.6603 64.6178C58.7641 67.7349 62.7185 69.8577 67.0235 70.7177C71.3285 71.5778 75.7908 71.1364 79.846 69.4494C83.9013 67.7624 87.3673 64.9056 89.8059 61.2402C92.2445 57.5748 93.5461 53.2655 93.5461 48.8572C93.5461 42.9458 91.2079 37.2766 87.0459 33.0966C82.8839 28.9166 77.2391 26.5684 71.3531 26.5684ZM60.7852 46.3856C60.7852 46.7602 60.637 47.1194 60.3733 47.3843C60.1096 47.6491 59.7519 47.7979 59.3789 47.7979C59.006 47.7979 58.6483 47.6491 58.3845 47.3843C58.1208 47.1194 57.9727 46.7602 57.9727 46.3856V44.7897C57.9727 44.4151 58.1208 44.0559 58.3845 43.791C58.6483 43.5262 59.006 43.3774 59.3789 43.3774C59.7519 43.3774 60.1096 43.5262 60.3733 43.791C60.637 44.0559 60.7852 44.4151 60.7852 44.7897V46.3856ZM74.6367 54.1534C74.3101 54.3341 73.9253 54.3771 73.5671 54.2729C73.2089 54.1688 72.9065 53.9259 72.7266 53.5979C72.5917 53.3504 72.3931 53.1439 72.1514 53.0001C71.9098 52.8562 71.634 52.7803 71.3531 52.7803C71.0722 52.7803 70.7965 52.8562 70.5549 53.0001C70.3132 53.1439 70.1145 53.3504 69.9797 53.5979C69.7976 53.9218 69.4956 54.1605 69.1392 54.2621C68.7829 54.3637 68.4011 54.32 68.0766 54.1405C67.7522 53.961 67.5114 53.6602 67.4065 53.3034C67.3016 52.9466 67.3411 52.5627 67.5164 52.235C67.8945 51.5449 68.45 50.9694 69.1251 50.5686C69.8002 50.1678 70.5701 49.9564 71.3543 49.9564C72.1385 49.9564 72.9084 50.1678 73.5835 50.5686C74.2586 50.9694 74.8142 51.5449 75.1922 52.235C75.2823 52.3979 75.3394 52.5771 75.3603 52.7622C75.3811 52.9474 75.3652 53.1349 75.3136 53.3139C75.262 53.4928 75.1756 53.6598 75.0594 53.8051C74.9432 53.9504 74.7996 54.0712 74.6367 54.1605V54.1534ZM84.736 46.3856C84.736 46.7602 84.5878 47.1194 84.3241 47.3843C84.0603 47.6491 83.7027 47.7979 83.3297 47.7979C82.9567 47.7979 82.5991 47.6491 82.3353 47.3843C82.0716 47.1194 81.9235 46.7602 81.9235 46.3856V44.7897C81.9235 44.4151 82.0716 44.0559 82.3353 43.791C82.5991 43.5262 82.9567 43.3774 83.3297 43.3774C83.7027 43.3774 84.0603 43.5262 84.3241 43.791C84.5878 44.0559 84.736 44.4151 84.736 44.7897V46.3856Z" fill="#999999"/>
<path d="M31.6405 74.7119L7.03117 99.4276C6.08198 100.342 5.32406 101.437 4.80183 102.649C4.2796 103.862 4.00358 105.166 3.98994 106.487C3.9763 107.808 4.22532 109.118 4.7224 110.341C5.21949 111.564 5.95463 112.675 6.88473 113.609C7.81484 114.542 8.9212 115.28 10.139 115.779C11.3567 116.278 12.6614 116.528 13.9764 116.513C15.2915 116.499 16.5906 116.222 17.7974 115.697C19.0042 115.172 20.0946 114.41 21.0046 113.457L45.614 88.741C40.03 85.0982 35.2696 80.3188 31.6405 74.7119Z" fill="#999999"/>
<path d="M102.83 17.2447C94.4751 8.87268 83.155 4.1709 71.3531 4.1709C59.5511 4.1709 48.231 8.87268 39.8765 17.2447C22.5327 34.6751 22.5327 63.0369 39.8765 80.4697C57.2202 97.9025 85.4741 97.9002 102.83 80.4697C120.185 63.0393 120.185 34.6751 102.83 17.2447ZM95.2991 72.9067C82.0968 86.1685 60.6117 86.1685 47.407 72.9067C34.2023 59.645 34.2023 38.0694 47.407 24.8077C60.6117 11.546 82.0945 11.546 95.2991 24.8077C108.504 38.0694 108.516 59.645 95.2991 72.9067Z" fill="#999999"/>
</svg>
